<?xml version="1.0" encoding="UTF-8" standalone="no"?>
<!-- Created with Inkscape (http://www.inkscape.org/) -->

<svg
   xmlns:dc="http://purl.org/dc/elements/1.1/"
   xmlns:cc="http://creativecommons.org/ns#"
   xmlns:rdf="http://www.w3.org/1999/02/22-rdf-syntax-ns#"
   xmlns:svg="http://www.w3.org/2000/svg"
   xmlns="http://www.w3.org/2000/svg"
   xmlns:sodipodi="http://sodipodi.sourceforge.net/DTD/sodipodi-0.dtd"
   xmlns:inkscape="http://www.inkscape.org/namespaces/inkscape"
   width="50"
   height="50"
   id="svg4351"
   version="1.1"
   inkscape:version="0.48.4 r9939"
   sodipodi:docname="skull.svg">
  <defs
     id="defs4353" />
  <sodipodi:namedview
     id="base"
     pagecolor="#ffffff"
     bordercolor="#666666"
     borderopacity="1.0"
     inkscape:pageopacity="0.0"
     inkscape:pageshadow="2"
     inkscape:zoom="15.839192"
     inkscape:cx="16.532461"
     inkscape:cy="17.709584"
     inkscape:document-units="px"
     inkscape:current-layer="layer1"
     showgrid="false"
     inkscape:window-width="2558"
     inkscape:window-height="1400"
     inkscape:window-x="1920"
     inkscape:window-y="0"
     inkscape:window-maximized="1" />
  <metadata
     id="metadata4356">
    <rdf:RDF>
      <cc:Work
         rdf:about="">
        <dc:format>image/svg+xml</dc:format>
        <dc:type
           rdf:resource="http://purl.org/dc/dcmitype/StillImage" />
        <dc:title></dc:title>
      </cc:Work>
    </rdf:RDF>
  </metadata>
  <g
     inkscape:label="Layer 1"
     inkscape:groupmode="layer"
     id="layer1"
     transform="translate(0,-1002.3622)">
    <path
       style="fill:#000000;fill-opacity:1;stroke:none"
       d="m 16.190705,1040.8011 c -2.24e-4,-0.3244 -0.124525,-1.558 -0.276052,-2.7412 l -0.2755,-2.1513 -2.395058,-2.9282 c -1.152913,-1.4095 -3.376722,-4.7184 -4.1566313,-6.2952 -2.2914631,-4.633 -1.8423128,-8.4186 0.042442,-11.6124 1.2371123,-2.0964 2.6991773,-3.9069 6.3256783,-5.7168 4.495095,-2.2434 6.768363,-3.0786 11.570044,-3.0769 5.196622,0 7.751979,2.0472 9.536055,3.6338 1.854248,1.649 3.389169,3.5473 4.245933,5.4624 1.607682,3.5936 -0.817837,11.4915 -2.687119,14.5012 -1.509193,2.4299 -2.079775,3.7694 -3.430018,5.3569 l -0.836639,0.9528 0.275942,2.0461 c 0.151769,1.1255 0.227384,2.0826 0.16803,2.127 -0.10293,0.077 -16.249858,1.0276 -17.504651,1.0303 -0.58485,0 -0.601924,-0.016 -0.602456,-0.5885 z m 11.119649,-8.0214 c 1.127308,-0.5247 1.16748,-0.9516 0.249458,-2.6509 -0.664939,-1.2308 -1.048632,-2.8213 -1.200181,-3.5709 -0.261238,-1.2921 0.09709,-1.0136 -1.013168,-1.8222 -1.043128,-0.071 -0.746566,-0.2544 -1.32797,0.2737 -0.323534,0.2941 -0.810447,0.9733 -1.082032,1.5091 -0.271583,0.5358 -0.896478,1.7486 -1.38866,2.6949 -0.993649,1.9106 -1.133241,2.7243 -0.536728,3.1289 0.767348,0.5204 0.895483,0.4477 3.792118,0.4097 2.517381,-0.033 1.894472,0.3128 2.507163,0.028 z m -8.521168,-8.4114 c 1.239238,-0.619 3.137573,-2.2504 3.657996,-3.1436 0.345398,-0.5929 0.279221,-1.3975 -0.148447,-1.805 -0.497035,-0.4735 -1.928913,-0.8579 -4.018222,-1.0787 -1.477881,-0.1562 -1.93109,-0.1507 -3.371474,0.041 -4.048167,0.5378 -4.372734,1.853 -2.827959,3.2575 0.321375,0.2922 1.186204,0.7472 2.083533,1.0964 0.843756,0.3281 0.663242,0.9301 1.373639,1.2607 1.432662,0.6664 2.432482,0.7809 3.250934,0.3721 l 0,0 z m 15.144508,-0.2841 c 0.324687,-0.1503 0.890109,-0.5475 1.2565,-0.8826 0.366388,-0.3351 0.668256,-0.8537 1.288135,-1.3069 1.302435,-0.9522 1.596248,-1.6323 0.999806,-2.3145 -0.888645,-1.0164 -2.727391,-1.9016 -5.565651,-1.5064 -1.107566,0.1542 -4.653207,1.3833 -5.303564,1.8386 -0.907842,0.6353 -0.377876,1.381 1.868745,2.6293 3.10079,1.723 3.844466,2.2889 5.456029,1.5425 z"
       id="path4335"
       inkscape:connector-curvature="0"
       sodipodi:nodetypes="cscsscscssscccccccssccsccscccccccsccccccsssccc" />
    <path
       style="fill:#000000;fill-opacity:1;stroke:none"
       d="m 16.238567,1043.9797 0,-2.6264 5.126758,0.01 c 5.469409,0.01 7.429986,-0.1196 10.83745,-0.691 1.108655,-0.1859 2.064666,-0.3013 2.124477,-0.2564 0.102613,0.077 0.402768,5.6411 0.308262,5.7143 -0.02438,0.018 -0.536444,-0.043 -1.137914,-0.1388 -0.731658,-0.1159 -2.805587,-0.1707 -6.266528,-0.1658 -4.392701,0.01 -5.569008,0.053 -7.798818,0.3146 -1.444235,0.1691 -2.753634,0.3443 -2.909782,0.3892 -0.24921,0.072 -0.283905,-0.2391 -0.283905,-2.5446 z"
       id="path4337"
       inkscape:connector-curvature="0" />
  </g>
</svg>
